1.9Hzhigh3min_grf.mot
version=1
nRows=27
nColumns 19
inDegrees=yes
endheader
time	1_ground_force_vx	1_ground_force_vy	1_ground_force_vz	1_ground_force_px	1_ground_force_py	1_ground_force_pz	1_ground_torque_x	1_ground_torque_y	1_ground_torque_z	2_ground_force_vx	2_ground_force_vy	2_ground_force_vz	2_ground_force_px	2_ground_force_py	2_ground_force_pz	2_ground_torque_x	2_ground_torque_y	2_ground_torque_z
            0.005000	           -0.457828	           -0.181337	            0.229644	           -0.220581	            0.006388	           -0.443311	           -0.028488	            0.036765	           -0.019313	           -8.956219	           14.891238	           -2.007829	           -0.035458	            0.005917	           -0.574681	            0.107917	           -0.179430	            0.024193
            0.005500	           -0.549319	           -0.001483	            0.322357	           -0.220581	            0.006388	           -0.443311	           -0.013586	           -0.102163	            0.032533	           -9.188536	           14.338450	           -2.150485	           -0.026544	            0.005920	           -0.566656	            0.023238	           -0.036263	            0.005439
            0.006000	           -0.366256	           -0.181123	            0.183561	           -0.220581	            0.006388	           -0.443311	           -0.045173	           -0.120496	            0.021560	           -8.861957	           14.708265	           -2.243166	           -0.038081	            0.005872	           -0.564723	            0.094098	           -0.156176	            0.023818
            0.006500	           -0.274261	           -0.001429	            0.321674	           -0.220581	            0.006388	           -0.443311	           -0.088747	           -0.055673	            0.007051	           -9.142975	           14.706581	           -2.055334	           -0.027441	            0.005945	           -0.574623	            0.079706	           -0.128208	            0.017918
            0.007000	           -0.412602	           -0.540680	           -0.047151	           -0.220581	            0.006388	           -0.443311	            0.114985	           -0.000330	            0.019736	           -8.865904	           15.812820	           -2.145368	           -0.049748	            0.005897	           -0.583626	            0.129750	           -0.231416	            0.031397
            0.007500	           -0.595716	            0.540092	            0.141366	           -0.220581	            0.006388	           -0.443311	           -0.006347	            0.129218	           -0.043659	           -9.047363	           14.155143	           -2.245058	           -0.023638	            0.005913	           -0.561637	            0.083147	           -0.130089	            0.020633
            0.008000	           -0.412260	           -0.541270	            0.090417	           -0.220581	            0.006388	           -0.443311	            0.033637	            0.111224	           -0.129969	           -9.329086	           14.337942	           -2.150425	           -0.037493	            0.005888	           -0.568660	            0.050889	           -0.078211	            0.011730
            0.008500	           -0.411610	           -0.362184	            0.366325	           -0.220581	            0.006388	           -0.443311	            0.021948	            0.009313	           -0.073989	           -9.470424	           14.522587	           -2.431277	           -0.036698	            0.005886	           -0.567402	            0.080621	           -0.123630	            0.020697
            0.009000	           -0.366402	           -0.000661	            0.138478	           -0.220581	            0.006388	           -0.443311	            0.031705	           -0.101916	            0.002645	           -9.423409	           14.521417	           -2.055872	           -0.026523	            0.005918	           -0.566192	            0.022817	           -0.035161	            0.004978
            0.009500	           -0.640597	           -0.362621	            0.458606	           -0.220581	            0.006388	           -0.443311	            0.055626	           -0.111028	           -0.065564	           -9.236695	           14.706410	           -2.102223	           -0.034358	            0.005905	           -0.570261	            0.030932	           -0.049250	            0.007040
            0.010000	           -0.503461	            0.539127	            0.370418	           -0.220581	            0.006388	           -0.443311	            0.002838	           -0.083570	            0.015710	           -9.004439	           15.259700	           -2.100351	           -0.038931	            0.005928	           -0.581349	            0.101374	           -0.171796	            0.023646
            0.010500	           -0.411937	            0.179006	            0.276932	           -0.220581	            0.006388	           -0.443311	           -0.068454	            0.074157	           -0.111102	           -9.280825	           13.969145	           -1.964047	           -0.024254	            0.005918	           -0.563654	           -0.033423	            0.050307	           -0.007073
            0.011000	           -0.549708	           -0.361227	            0.137387	           -0.220581	            0.006388	           -0.443311	           -0.042970	            0.073207	            0.089765	           -9.094816	           14.338620	           -2.103596	           -0.035830	            0.005885	           -0.566217	            0.029525	           -0.046548	            0.006829
            0.011500	           -0.503898	           -0.180953	            0.138046	           -0.220581	            0.006388	           -0.443311	           -0.006052	            0.083365	           -0.115114	           -9.096104	           14.706582	           -2.008426	           -0.032569	            0.005894	           -0.565541	            0.081990	           -0.132561	            0.018103
            0.012000	           -0.411760	            1.079745	            0.418365	           -0.220581	            0.006388	           -0.443311	            0.000256	           -0.036826	           -0.092982	           -9.189180	           14.522430	           -2.102900	           -0.040287	            0.005875	           -0.568013	            0.071658	           -0.113248	            0.016399
            0.012500	           -0.274228	           -0.181695	            0.320901	           -0.220581	            0.006388	           -0.443311	            0.061467	           -0.138674	           -0.031267	           -9.278831	           13.416700	           -1.966018	           -0.012899	            0.005914	           -0.551158	           -0.033372	            0.048254	           -0.007071
            0.013000	           -0.457684	            0.899667	            0.371850	           -0.220581	            0.006388	           -0.443311	           -0.053751	           -0.092723	           -0.001045	           -9.424800	           14.890216	           -2.195342	           -0.036158	            0.005941	           -0.582332	            0.068676	           -0.108502	            0.015997
            0.013500	           -0.319601	            0.358110	            0.552613	           -0.220581	            0.006388	           -0.443311	           -0.023724	           -0.027863	           -0.013756	           -9.328463	           14.154128	           -2.244938	           -0.033439	            0.005898	           -0.567477	            0.037590	           -0.057035	            0.009046
            0.014000	           -0.274081	           -0.362157	            0.365984	           -0.220581	            0.006388	           -0.443311	            0.059549	            0.037033	           -0.049301	           -9.424156	           14.706235	           -2.242927	           -0.033974	            0.005916	           -0.573080	            0.083630	           -0.130503	            0.019904
            0.014500	           -0.228484	            0.359111	            0.323106	           -0.220581	            0.006388	           -0.443311	            0.060930	            0.157378	           -0.084455	           -9.331100	           14.890554	           -2.195382	           -0.037796	            0.005898	           -0.571999	            0.091423	           -0.145892	            0.021510
            0.015000	           -0.274066	            0.178443	            0.414159	           -0.220581	            0.006388	           -0.443311	            0.000890	            0.000130	           -0.068131	           -9.515259	           13.969806	           -2.386300	           -0.024464	            0.005908	           -0.561274	            0.056735	           -0.083296	            0.014228
            0.015500	           -0.457519	           -0.001661	            0.367985	           -0.220581	            0.006388	           -0.443311	           -0.090912	           -0.036947	           -0.075874	           -9.562794	           14.153952	           -2.432551	           -0.023977	            0.005902	           -0.558930	            0.027276	           -0.040372	            0.006938
            0.016000	           -0.457942	           -0.181141	            0.183788	           -0.220581	            0.006388	           -0.443311	            0.029862	           -0.138930	           -0.001413	           -9.471109	           14.706903	           -2.477548	           -0.035488	            0.005909	           -0.572703	            0.089199	           -0.138510	            0.023334
            0.016500	           -0.320347	           -0.541645	            0.181901	           -0.220581	            0.006388	           -0.443311	            0.086418	           -0.101882	            0.004483	           -9.422847	           14.338106	           -2.291169	           -0.026701	            0.005908	           -0.563466	            0.031534	           -0.047983	            0.007668
            0.017000	           -0.549367	           -0.361817	            0.274955	           -0.220581	            0.006388	           -0.443311	            0.044568	            0.018575	           -0.098667	           -9.282339	           14.338948	           -2.385085	           -0.038268	            0.005871	           -0.564770	            0.088192	           -0.136235	            0.022661
            0.017500	           -0.640549	           -0.002287	            0.506008	           -0.220581	            0.006388	           -0.443311	           -0.021779	            0.092475	           -0.102108	           -9.000410	           14.154476	           -2.010437	           -0.031805	            0.005887	           -0.562832	            0.103850	           -0.163319	            0.023197
            0.018000	           -0.412443	            1.080925	            0.143230	           -0.220581	            0.006388	           -0.443311	           -0.006711	            0.073922	           -0.054894	           -9.563294	           14.336762	           -2.056469	           -0.029638	            0.005924	           -0.570950	            0.055644	           -0.083418	            0.011966
